#!OML:ASF X:\für Bonn\!DataBase\2005_08_11_Bastian_Final\c3d\Bastian.ASF
:FULLY-SPECIFIED
:DEGREES
80
root -1.87509 16.1491 -26.5553 123.956 -19.1977 -177.66
lowerback 45.5002 10.1971 11.9559
upperback 22.5876 8.93215 0.726113
thorax 6.40369 1.99444 -8.15142
lowerneck 2.28845 -6.00713 -8.22728
upperneck 6.4518 -10.8061 23.734
head 3.24037 -5.5552 8.44409
rclavicle -5.40694e-014 -4.77083e-014
rhumerus 7.1869 22.1107 -81.1794
rradius 120.968
rwrist 16.8773
rhand -21.7921 4.9609
rfingers 7.12502
rthumb 4.60953 -24.9689
lclavicle -5.40694e-014 -4.77083e-014
lhumerus 23.3639 -46.1092 76.5274
lradius 110.366
lwrist 47.7163
lhand -13.3179 -17.9272
lfingers 7.12502
lthumb 12.7867 11.6612
rfemur 28.6286 -5.36324 20.0183
rtibia 41.3426
rfoot -187.74 -174.083
rtoes 3.62606
lfemur -71.627 7.78655 -23.631
ltibia 84.2009
lfoot 17.1494 -17.5447
ltoes -47.1099
81
root -1.85953 16.172 -26.6176 123.79 -18.5195 -178.479
lowerback 45.8143 10.8513 11.7194
upperback 22.9089 9.40108 0.717228
thorax 6.7494 2.11737 -8.18705
lowerneck 1.88752 -5.93195 -8.34038
upperneck 6.89738 -10.7622 23.6421
head 3.43359 -5.48564 8.41976
rclavicle 4.37326e-014 -3.81667e-014
rhumerus 6.70693 21.8089 -81.4322
rradius 121.337
rwrist 17.0172
rhand -21.1363 4.93528
rfingers 7.12502
rthumb 5.24276 -24.9799
lclavicle 4.37326e-014 -3.81667e-014
lhumerus 23.4856 -45.7198 76.4197
lradius 110.463
lwrist 47.5252
lhand -12.8671 -17.0432
lfingers 7.12502
lthumb 13.2213 12.5175
rfemur 29.5828 -4.51253 20.2353
rtibia 40.4985
rfoot -187.403 -174.131
rtoes 3.8802
lfemur -71.5294 6.82855 -22.5881
ltibia 76.7663
lfoot 17.2902 -13.8935
ltoes -44.8314
82
root -1.84191 16.1981 -26.679 123.477 -17.956 -179.27
lowerback 46.1124 11.5048 11.4402
upperback 23.2945 9.82327 0.782588
thorax 7.14677 2.19357 -8.11002
lowerneck 1.54141 -5.8483 -8.59515
upperneck 7.34353 -10.6994 23.5524
head 3.62164 -5.41208 8.42651
rclavicle 5.80451e-014 -1.7016e-013
rhumerus 6.2475 21.5001 -81.588
rradius 121.681
rwrist 16.9986
rhand -20.6182 5.02587
rfingers 7.12502
rthumb 5.74297 -24.8763
lclavicle 5.80451e-014 -1.7016e-013
lhumerus 23.6038 -45.3616 76.3702
lradius 110.517
lwrist 47.3469
lhand -12.4715 -16.2581
lfingers 7.12502
lthumb 13.6026 13.2775
rfemur 30.7721 -3.72098 20.3856
rtibia 39.4781
rfoot -186.987 -174.232
rtoes 4.2449
lfemur -70.6527 5.78566 -21.2668
ltibia 69.1306
lfoot 15.946 -9.67819
ltoes -42.4302
83
root -1.79054 16.2983 -26.6579 123.097 -17.3548 -179.99
lowerback 46.2786 12.134 11.1732
upperback 23.7455 10.1922 0.920476
thorax 7.63467 2.23184 -7.94303
lowerneck 1.16384 -5.74057 -8.98499
upperneck 7.82632 -10.5922 23.429
head 3.8234 -5.31539 8.44965
rclavicle -6.04305e-014 -5.40694e-014
rhumerus 5.96182 21.2383 -81.6023
rradius 121.938
rwrist 16.8478
rhand -20.2007 5.21338
rfingers 7.12502
rthumb 6.14609 -24.6775
lclavicle -6.04305e-014 -5.40694e-014
lhumerus 23.7061 -44.9466 76.3862
lradius 110.532
lwrist 47.171
lhand -12.255 -15.5772
lfingers 7.12502
lthumb 13.8113 13.9443
rfemur 31.9081 -3.03829 20.585
rtibia 38.1531
rfoot -186.161 -174.247
rtoes 4.46848
lfemur -69.0605 4.8289 -19.6306
ltibia 61.5356
lfoot 12.8352 -5.82243
ltoes -40.4023
84
root -1.76005 16.338 -26.6836 122.647 -16.7504 -180.666
lowerback 46.3804 12.7284 10.8919
upperback 24.2131 10.5039 1.09825
thorax 8.13718 2.22866 -7.71061
lowerneck 0.905715 -5.59241 -9.4383
upperneck 8.25792 -10.4001 23.2353
head 3.97297 -5.18967 8.47223
rclavicle -3.81667e-014 1.51076e-013
rhumerus 5.71934 21.0193 -81.4383
rradius 122.142
rwrist 16.5383
rhand -19.9997 5.45747
rfingers 7.12502
rthumb 6.34008 -24.4276
lclavicle -3.81667e-014 1.51076e-013
lhumerus 23.6792 -44.4781 76.4755
lradius 110.525
lwrist 47.0513
lhand -12.2094 -15.1032
lfingers 7.12502
lthumb 13.8552 14.4153
rfemur 33.1161 -2.42476 20.7634
rtibia 36.9844
rfoot -185.547 -174.237
rtoes 4.51967
lfemur -67.9778 4.00012 -17.9733
ltibia 54.6318
lfoot 8.82489 -2.78975
ltoes -39.8661
85
root -1.7415 16.3528 -26.7248 122.145 -16.1437 -181.296
lowerback 46.3963 13.2427 10.6323
upperback 24.695 10.7186 1.27263
thorax 8.66641 2.1758 -7.46662
lowerneck 0.663877 -5.39411 -9.99661
upperneck 8.75863 -10.143 23.0268
head 4.13186 -5.03604 8.51647
rclavicle -9.22361e-014 -4.77083e-015
rhumerus 5.6541 20.7847 -81.1001
rradius 122.189
rwrist 16.1057
rhand -19.9188 5.74965
rfingers 7.12502
rthumb 6.4182 -24.1331
lclavicle -9.22361e-014 -4.77083e-015
lhumerus 23.5874 -43.9264 76.6023
lradius 110.422
lwrist 46.9149
lhand -12.384 -14.7465
lfingers 7.12502
lthumb 13.687 14.7835
rfemur 34.3352 -1.86957 20.9422
rtibia 35.9116
rfoot -185.026 -174.206
rtoes 4.20004
lfemur -66.8479 3.17142 -16.1692
ltibia 48.3896
lfoot 4.6885 0.115114
ltoes -36.4932
86
root -1.73464 16.349 -26.7778 121.588 -15.4911 -181.833
lowerback 46.3542 13.5812 10.576
upperback 25.1499 10.81 1.37947
thorax 9.217 2.10029 -7.35984
lowerneck 0.634391 -5.13272 -10.6768
upperneck 9.18544 -9.79317 22.8641
head 4.22098 -4.86027 8.61417
rclavicle 2.54444e-014 9.22361e-014
rhumerus 5.49303 20.6301 -80.8259
rradius 122.173
rwrist 15.7195
rhand -19.9334 5.9991
rfingers 7.12502
rthumb 6.40411 -23.8841
lclavicle 2.54444e-014 9.22361e-014
lhumerus 23.3563 -43.4094 76.7279
lradius 110.279
lwrist 46.7347
lhand -12.8003 -14.5287
lfingers 7.12502
lthumb 13.2857 15.0278
rfemur 35.3576 -1.37758 21.1746
rtibia 35.3874
rfoot -184.836 -174.188
rtoes 3.93023
lfemur -65.9716 1.92136 -13.7717
ltibia 43.2378
lfoot -0.407075 2.70636
ltoes -32.763
87
root -1.73166 16.3428 -26.8258 121.012 -14.8736 -182.362
lowerback 46.2614 13.7836 10.6222
upperback 25.5735 10.7891 1.37897
thorax 9.77112 2.00186 -7.39073
lowerneck 0.764047 -4.79164 -11.4426
upperneck 9.6253 -9.35853 22.7747
head 4.2743 -4.66023 8.7661
rclavicle -2.38542e-014 -3.02153e-014
rhumerus 5.23205 20.5636 -80.6562
rradius 122.09
rwrist 15.4555
rhand -19.9971 6.11672
rfingers 7.12502
rthumb 6.34261 -23.7683
lclavicle -2.38542e-014 -3.02153e-014
lhumerus 23.0563 -42.8942 76.7992
lradius 110.059
lwrist 46.6558
lhand -13.3603 -14.3456
lfingers 7.12502
lthumb 12.7458 15.2453
rfemur 36.2474 -0.973058 21.2566
rtibia 35.1416
rfoot -184.782 -174.029
rtoes 3.73245
lfemur -65.5024 -0.418919 -10.1835
ltibia 39.319
lfoot -6.28536 6.43344
ltoes -31.3111
88
root -1.73583 16.3243 -26.8825 120.409 -14.2362 -182.807
lowerback 46.1949 13.8381 10.8242
upperback 25.8986 10.6911 1.28721
thorax 10.2421 1.90946 -7.57771
lowerneck 1.09456 -4.39852 -12.1776
upperneck 10.021 -8.87233 22.7118
head 4.26482 -4.45391 8.9311
rclavicle 1.66979e-014 1.11319e-014
rhumerus 4.78019 20.5572 -80.6242
rradius 121.951
rwrist 15.3738
rhand -20.0713 6.14706
rfingers 7.12502
rthumb 6.27097 -23.7401
lclavicle 1.66979e-014 1.11319e-014
lhumerus 22.6136 -42.4738 76.8719
lradius 109.767
lwrist 46.6087
lhand -14.0041 -14.1872
lfingers 7.12502
lthumb 12.1252 15.4414
rfemur 37.0594 -0.67962 21.2927
rtibia 35.1135
rfoot -184.862 -173.732
rtoes 3.91814
lfemur -65.4203 -0.0802076 -9.32278
ltibia 36.7068
lfoot -11.1114 6.22438
ltoes -31.4458
89
root -1.74362 16.3005 -26.9414 119.818 -13.6734 -183.248
lowerback 46.1129 13.8429 11.0205
upperback 26.2069 10.5376 1.14728
thorax 10.6973 1.79905 -7.80496
lowerneck 1.4347 -3.98374 -12.908
upperneck 10.3981 -8.36519 22.6776
head 4.2414 -4.24185 9.10586
rclavicle 8.5875e-014 1.43125e-014
rhumerus 4.31173 20.6358 -80.6256
rradius 121.72
rwrist 15.4908
rhand -20.1684 6.0315
rfingers 7.12502
rthumb 6.17721 -23.8584
lclavicle 8.5875e-014 1.43125e-014
lhumerus 22.2003 -42.0335 76.8854
lradius 109.425
lwrist 46.6585
lhand -14.505 -13.9412
lfingers 7.12502
lthumb 11.6421 15.7153
rfemur 37.77 -0.496751 21.1107
rtibia 35.2701
rfoot -185.049 -173.285
rtoes 4.25126
lfemur -65.4856 0.148709 -8.57153
ltibia 35.4047
lfoot -14.7635 5.70346
ltoes -32.2489
90
root -1.75788 16.2703 -27.0063 119.202 -13.0986 -183.611
lowerback 46.0797 13.7941 11.2558
upperback 26.4406 10.3683 1.01831
thorax 11.0527 1.6912 -8.03761
lowerneck 1.86268 -3.56306 -13.5047
upperneck 10.7507 -7.85312 22.5544
head 4.18214 -4.03396 9.22416
rclavicle -8.74653e-014 -2.8625e-014
rhumerus 3.70687 20.8176 -80.651
rradius 121.463
rwrist 15.7661
rhand -20.1813 5.7726
rfingers 7.12502
rthumb 6.16482 -24.1177
lclavicle -8.74653e-014 -2.8625e-014
lhumerus 21.6729 -41.6634 76.9614
lradius 109.206
lwrist 46.6959
lhand -14.9431 -13.5028
lfingers 7.12502
lthumb 11.2196 16.1772
rfemur 38.4111 -0.50428 20.7533
rtibia 35.6177
rfoot -185.389 -172.638
rtoes 4.54904
lfemur -65.7834 0.316326 -7.80814
ltibia 35.0894
lfoot -17.6929 5.12183
ltoes -34.603
91
root -1.77784 16.2324 -27.0791 118.583 -12.5809 -183.936
lowerback 46.0999 13.7132 11.5082
upperback 26.6375 10.1805 0.856821
thorax 11.3558 1.58349 -8.31391
lowerneck 2.22905 -3.18178 -13.8071
upperneck 11.0993 -7.38408 22.2915
head 4.12493 -3.83845 9.22999
rclavicle 5.56597e-015 1.00187e-013
rhumerus 3.04072 21.0131 -80.7169
rradius 121.192
rwrist 16.2261
rhand -20.1538 5.3727
rfingers 7.12502
rthumb 6.19136 -24.5168
lclavicle 5.56597e-015 1.00187e-013
lhumerus 21.2266 -41.3426 76.966
lradius 109.044
lwrist 46.8115
lhand -15.1023 -12.879
lfingers 7.12502
lthumb 11.0661 16.8093
rfemur 39.0048 -0.621889 20.2223
rtibia 36.1057
rfoot -185.824 -171.83
rtoes 5.08799
lfemur -66.1721 0.42 -7.11788
ltibia 35.4707
lfoot -18.8315 4.20876
ltoes -35.686
92
root -1.80187 16.1907 -27.1562 118.003 -12.1093 -184.224
lowerback 46.0779 13.5911 11.6926
upperback 26.7849 9.94454 0.662476
thorax 11.5868 1.45525 -8.58258
lowerneck 2.64318 -2.75894 -13.9959
upperneck 11.4253 -6.86315 21.9926
head 4.03811 -3.62094 9.20205
rclavicle -1.66979e-014 9.54166e-014
rhumerus 2.30685 21.3266 -80.7982
rradius 120.903
rwrist 16.7794
rhand -20.0729 5.00281
rfingers 7.12502
rthumb 6.26948 -24.8844
lclavicle -1.66979e-014 9.54166e-014
lhumerus 20.7431 -40.9707 77.0355
lradius 108.893
lwrist 46.9119
lhand -14.9233 -12.0994
lfingers 7.12502
lthumb 11.2387 17.5796
rfemur 39.5273 -0.793249 19.6112
rtibia 36.6816
rfoot -186.322 -170.983
rtoes 5.72063
lfemur -66.3416 0.411293 -6.4985
ltibia 36.3636
lfoot -17.8729 3.00446
ltoes -31.0277
